<svg width="1024" height="500" xmlns="http://www.w3.org/2000/svg">
  <!-- Background gradient -->
  <defs>
    <linearGradient id="bgGradient" x1="0%" y1="0%" x2="100%" y2="100%">
      <stop offset="0%" style="stop-color:#1a1a1a;stop-opacity:1" />
      <stop offset="100%" style="stop-color:#2a2a2a;stop-opacity:1" />
    </linearGradient>
    <linearGradient id="logoGradient" x1="0%" y1="0%" x2="100%" y2="100%">
      <stop offset="0%" style="stop-color:#4A7C59;stop-opacity:1" />
      <stop offset="100%" style="stop-color:#5A9C69;stop-opacity:1" />
    </linearGradient>
  </defs>
  
  <!-- Background -->
  <rect width="1024" height="500" fill="url(#bgGradient)"/>
  
  <!-- Subtle topo pattern overlay -->
  <pattern id="topoPattern" x="0" y="0" width="160" height="160" patternUnits="userSpaceOnUse">
    <path d="M0 80c40-30 80-30 120 0s80 30 120 0" fill="none" stroke="#b9a484" stroke-width="0.6" opacity="0.15"/>
  </pattern>
  <rect width="1024" height="500" fill="url(#topoPattern)"/>
  
  <!-- Logo (centered, large) -->
  <g transform="translate(512, 200)">
    <path
      fill="url(#logoGradient)"
      d="
        M32 4
        C32.5 4 33 4.3 33.2 4.8
        L33.8 5.9
        Q35 8 36.5 11
        Q38.5 15 41 20
        Q44 26 47.5 33
        Q51 40 54.5 48
        Q56.5 52.5 58 56
        C58.4 57 58.2 57.8 57.5 58.3
        C57 58.7 56.3 58.8 55.5 58.5
        Q54 58 52 57.8
        Q48 57.5 44 57.6
        Q38 57.8 32 58
        Q26 57.8 20 57.6
        Q16 57.5 12 57.8
        Q10 58 8.5 58.5
        C7.7 58.8 7 58.7 6.5 58.3
        C5.8 57.8 5.6 57 6 56
        Q7.5 52.5 9.5 48
        Q13 40 16.5 33
        Q20 26 23 20
        Q25.5 15 27.5 11
        Q29 8 30.2 5.9
        L30.8 4.8
        C31 4.3 31.5 4 32 4
        Z
        
        M12 54
        Q14 53 17 53.5
        Q20 54 23 53
        Q24.5 52.5 25 51.5
        Q25.5 50.5 24.5 50
        Q22 49 19 49.5
        Q16 50 13 49
        L12 54
        Z
        
        M16 46
        Q19 45 23 45.5
        Q27 46 30 44.5
        Q31.5 43.8 32 42.8
        Q32.5 41.8 31 41
        Q28 39.5 24 40
        Q20 40.5 17 39.5
        L16 46
        Z
        
        M21 35
        Q24 34 28 34.5
        Q32 35 35 33.5
        Q36.5 32.8 37 31.8
        Q37.5 30.8 36 30
        Q33 28.5 29 29
        Q25 29.5 22 28.5
        L21 35
        Z
        
        M26 25
        Q28.5 24 31 24.5
        Q34 25 36 23.5
        Q37 22.8 37 22
        Q37 21 35.5 20.5
        Q33 19.5 30 20
        Q27 20.5 25.5 19.5
        L26 25
        Z
        
        M29 16
        Q30.5 15.2 32 15.5
        Q33.5 15.8 34.5 14.8
        Q35 14.2 34.8 13.5
        Q34.5 12.8 33 12.5
        Q31.5 12.2 30.5 12.8
        L29 16
        Z
      "
      transform="scale(3) translate(-32, -32)"
    />
  </g>
  
  <!-- PathQuest Text -->
  <text 
    x="512" 
    y="320" 
    font-family="system-ui, -apple-system, sans-serif" 
    font-size="72" 
    font-weight="700" 
    fill="#ffffff" 
    text-anchor="middle"
    letter-spacing="-1px"
  >
    PathQuest
  </text>
  
  <!-- Tagline -->
  <text 
    x="512" 
    y="370" 
    font-family="system-ui, -apple-system, sans-serif" 
    font-size="24" 
    font-weight="400" 
    fill="#b9a484" 
    text-anchor="middle"
    opacity="0.9"
  >
    Track Your Summit Adventures
  </text>
</svg>

